<?xml version="1.0" encoding="utf-8"?>
<!-- Generator: Adobe Illustrator 18.1.0, SVG Export Plug-In . SVG Version: 6.00 Build 0)  -->
<svg version="1.1" id="Layer_1" xmlns="http://www.w3.org/2000/svg" xmlns:xlink="http://www.w3.org/1999/xlink" x="0px" y="0px"
	 viewBox="-424.1 240.2 457.1 313.7" enable-background="new -424.1 240.2 457.1 313.7" xml:space="preserve">
<g>
	<path d="M17.3,292.4L-4.2,271c-7.4-7-16.7-12.9-26.6-12.9c-10.1,0-18,5.8-25.1,12.9l-138.8,141L-333.3,271
		c-7-7-15.6-12.9-25.7-12.9c-9.9,0-18.6,5.8-26,12.9l-21.1,21.4c-7.2,7.2-13.3,17-13.3,27c0,10.3,6,17.8,13.3,24.6l185.9,185.9
		c6.9,7.2,15.4,10.8,25.7,10.8c10.1,0,18.8-3.6,26-10.8L17.3,344.1c7-7,12.8-15.5,12.8-25.6C30.1,308.6,24.3,299.8,17.3,292.4z"/>
</g>
</svg>
